{"title":"Jack.Reacher.2012.BRRip XViD AC3 juggs","uid":8382914,"size":1153767345,"categoryP":"video","categoryS":"movies","magnet":"?xt=urn:btih:0648ada820f7cf84a9e0cf628529651659208196&amp;dn=Jack.Reacher.2012.BRRip+XViD+AC3+juggs&amp;tr=udp%3A%2F%2Ftracker.openbittorrent.com%3A80&amp;tr=udp%3A%2F%2Fopen.demonii.com%3A1337&amp;tr=udp%3A%2F%2Ftracker.coppersurfer.tk%3A6969&amp;tr=udp%3A%2F%2Fexodus.desync.com%3A6969","seeders":6,"leechers":1,"uploader":"juggs99","files":3,"time":1366216953,"description":"Source : AMIABLE (Thanks)\n &lt;a href=&quot;\nhttp://www.imdb.com/title/tt0790724/&quot; rel=&quot;nofollow&quot; target=&quot;_NEW&quot;&gt;\nhttp://www.imdb.com/title/tt0790724/&lt;/a&gt;\n\n\nFormat                                   : AVI\nFormat/Info                              : Audio Video Interleave\nFile size                                : 1.06 GiB\nDuration                                 : 2h 10mn\nOverall bit rate                         : 1 169 Kbps\nWriting library                          : VirtualDub build 32842/release\n\nVideo\nID                                       : 0\nFormat                                   : MPEG-4 Visual\nFormat profile                           : Advanced Simple@L5\nFormat settings, BVOP                    : 4\nFormat settings, QPel                    : No\nFormat settings, GMC                     : No warppoints\nFormat settings, Matrix                  : Default (H.263)\nMuxing mode                              : Packed bitstream\nCodec ID                                 : XVID\nCodec ID/Hint                            : XviD\nDuration                                 : 2h 10mn\nBit rate                                 : 968 Kbps\nWidth                                    : 640 pixels\nHeight                                   : 272 pixels\nDisplay aspect ratio                     : 2.35:1\nFrame rate                               : 23.976 fps\nColor space                              : YUV\nChroma subsampling                       : 4:2:0\nBit depth                                : 8 bits\nScan type                                : Progressive\nCompression mode                         : Lossy\nBits/(Pixel*Frame)                       : 0.232\nStream size                              : 903 MiB (83%)\nWriting library                          : XviD 1.2.0.dev47 (UTC 2006-11-01)\n\nAudio\nID                                       : 1\nFormat                                   : AC-3\nFormat/Info                              : Audio Coding 3\nMode extension                           : CM (complete main)\nFormat settings, Endianness              : Big\nCodec ID                                 : 2000\nDuration                                 : 2h 10mn\nBit rate mode                            : Constant\nBit rate                                 : 192 Kbps\nChannel(s)                               : 2 channels\nChannel positions                        : Front: L R\nSampling rate                            : 44.1 KHz\nBit depth                                : 16 bits\nCompression mode                         : Lossy\nStream size                              : 179 MiB (16%)\nAlignment                                : Aligned on interleaves\nInterleave, duration                     : 42 ms (1.00 video frame)\nInterleave, preload duration             : 522 ms\n\n &lt;a href=&quot;\nhttp://www.shotpix.com/images/68651517360893865138.png&quot; rel=&quot;nofollow&quot; target=&quot;_NEW&quot;&gt;\nhttp://www.shotpix.com/images/68651517360893865138.png&lt;/a&gt; &lt;a href=&quot;\nhttp://www.shotpix.com/images/22609807330842116877.png&quot; rel=&quot;nofollow&quot; target=&quot;_NEW&quot;&gt;\nhttp://www.shotpix.com/images/22609807330842116877.png&lt;/a&gt; &lt;a href=&quot;\nhttp://www.shotpix.com/images/43765219560400349418.png&quot; rel=&quot;nofollow&quot; target=&quot;_NEW&quot;&gt;\nhttp://www.shotpix.com/images/43765219560400349418.png&lt;/a&gt;","torrent":{"xt":"urn:btih:0648ada820f7cf84a9e0cf628529651659208196","amp;dn":"Jack.Reacher.2012.BRRip+XViD+AC3+juggs","amp;tr":["udp%3A%2F%2Ftracker.openbittorrent.com%3A80","udp%3A%2F%2Fopen.demonii.com%3A1337","udp%3A%2F%2Ftracker.coppersurfer.tk%3A6969","udp%3A%2F%2Fexodus.desync.com%3A6969"],"infoHash":"0648ada820f7cf84a9e0cf628529651659208196","infoHashBuffer":{"type":"Buffer","data":[6,72,173,168,32,247,207,132,169,224,207,98,133,41,101,22,89,32,129,150]},"announce":[],"urlList":[]}}